{
  "accessors": [
    {
      "bufferView": 1,
      "componentType": 5126,
      "count": 65532,
      "max": [
        0.05419725179672241,
        0.19213692843914032,
        0.09608545154333115
      ],
      "min": [
        -0.02087058313190937,
        0.030072461813688278,
        0.03404659777879715
      ],
      "type": "VEC3"
    },
    {
      "bufferView": 1,
      "byteOffset": 786384,
      "componentType": 5126,
      "count": 65532,
      "max": [
        1.0,
        1.0,
        1.0
      ],
      "min": [
        -1.0,
        -1.0,
        -1.0
      ],
      "type": "VEC3"
    },
    {
      "bufferView": 2,
      "componentType": 5126,
      "count": 65532,
      "max": [
        0.9254902005195618,
        0.7372549176216125,
        0.7372549176216125,
        1.0
      ],
      "min": [
        0.0,
        0.0,
        0.0,
        1.0
      ],
      "type": "VEC4"
    },
    {
      "bufferView": 0,
      "componentType": 5125,
      "count": 287964,
      "type": "SCALAR"
    },
    {
      "bufferView": 1,
      "byteOffset": 1572768,
      "componentType": 5126,
      "count": 65532,
      "max": [
        0.05212539806962013,
        0.19202958047389984,
        0.09539564698934555
      ],
      "min": [
        -0.02500585839152336,
        0.02868659235537052,
        0.04292445257306099
      ],
      "type": "VEC3"
    },
    {
      "bufferView": 1,
      "byteOffset": 2359152,
      "componentType": 5126,
      "count": 65532,
      "max": [
        1.0,
        1.0,
        1.0
      ],
      "min": [
        -1.0,
        -0.9999997615814209,
        -1.0
      ],
      "type": "VEC3"
    },
    {
      "bufferView": 2,
      "byteOffset": 1048512,
      "componentType": 5126,
      "count": 65532,
      "max": [
        0.9254902005195618,
        0.7372549176216125,
        0.7372549176216125,
        1.0
      ],
      "min": [
        0.0,
        0.0,
        0.0,
        1.0
      ],
      "type": "VEC4"
    },
    {
      "bufferView": 0,
      "byteOffset": 1151856,
      "componentType": 5125,
      "count": 307905,
      "type": "SCALAR"
    },
    {
      "bufferView": 1,
      "byteOffset": 3145536,
      "componentType": 5126,
      "count": 65532,
      "max": [
        0.04518188536167145,
        0.19121649861335754,
        0.09401693940162659
      ],
      "min": [
        -0.024896543473005295,
        0.03130157291889191,
        0.03404659777879715
      ],
      "type": "VEC3"
    },
    {
      "bufferView": 1,
      "byteOffset": 3931920,
      "componentType": 5126,
      "count": 65532,
      "max": [
        1.0,
        1.0,
        1.0
      ],
      "min": [
        -1.0,
        -1.0,
        -0.9999997019767761
      ],
      "type": "VEC3"
    },
    {
      "bufferView": 2,
      "byteOffset": 2097024,
      "componentType": 5126,
      "count": 65532,
      "max": [
        1.0,
        1.0,
        1.0,
        1.0
      ],
      "min": [
        0.0,
        0.0,
        0.0,
        1.0
      ],
      "type": "VEC4"
    },
    {
      "bufferView": 0,
      "byteOffset": 2383476,
      "componentType": 5125,
      "count": 290004,
      "type": "SCALAR"
    },
    {
      "bufferView": 1,
      "byteOffset": 4718304,
      "componentType": 5126,
      "count": 65532,
      "max": [
        0.058223214000463486,
        0.18652473390102386,
        0.09754697233438492
      ],
      "min": [
        -0.021139776334166527,
        0.030971895903348923,
        0.04291611909866333
      ],
      "type": "VEC3"
    },
    {
      "bufferView": 1,
      "byteOffset": 5504688,
      "componentType": 5126,
      "count": 65532,
      "max": [
        0.9999989867210388,
        1.0,
        0.9999998807907104
      ],
      "min": [
        -1.0,
        -0.9999979138374329,
        -1.0
      ],
      "type": "VEC3"
    },
    {
      "bufferView": 2,
      "byteOffset": 3145536,
      "componentType": 5126,
      "count": 65532,
      "max": [
        1.0,
        1.0,
        1.0,
        1.0
      ],
      "min": [
        0.0,
        0.0,
        0.0,
        1.0
      ],
      "type": "VEC4"
    },
    {
      "bufferView": 0,
      "byteOffset": 3543492,
      "componentType": 5125,
      "count": 285615,
      "type": "SCALAR"
    },
    {
      "bufferView": 1,
      "byteOffset": 6291072,
      "componentType": 5126,
      "count": 26269,
      "max": [
        0.05833252891898155,
        0.19027338922023773,
        0.09538185596466064
      ],
      "min": [
        0.01694708876311779,
        0.03130157291889191,
        0.043827999383211136
      ],
      "type": "VEC3"
    },
    {
      "bufferView": 1,
      "byteOffset": 6606300,
      "componentType": 5126,
      "count": 26269,
      "max": [
        0.9999963641166687,
        0.9999996423721313,
        1.0
      ],
      "min": [
        -0.999999463558197,
        -1.0,
        -1.0
      ],
      "type": "VEC3"
    },
    {
      "bufferView": 2,
      "byteOffset": 4194048,
      "componentType": 5126,
      "count": 26269,
      "max": [
        0.9254902005195618,
        0.7372549176216125,
        0.7372549176216125,
        1.0
      ],
      "min": [
        0.0,
        0.0,
        0.0,
        1.0
      ],
      "type": "VEC4"
    },
    {
      "bufferView": 0,
      "byteOffset": 4685952,
      "componentType": 5125,
      "count": 121158,
      "type": "SCALAR"
    }
  ],
  "asset": {
    "extras": {
      "author": "Nazh Design ✔ (https://sketchfab.com/NazhDesign)",
      "license": "CC-BY-4.0 (http://creativecommons.org/licenses/by/4.0/)",
      "source": "https://sketchfab.com/3d-models/2024-byd-dolphin-premium-long-range-8d30880667524cf3abb9e3e66c5299b5",
      "title": "2024 BYD Dolphin Premium Long Range"
    },
    "generator": "Sketchfab-16.3.0",
    "version": "2.0"
  },
  "bufferViews": [
    {
      "buffer": 0,
      "byteLength": 5170584,
      "name": "floatBufferViews",
      "target": 34963
    },
    {
      "buffer": 0,
      "byteLength": 6921528,
      "byteOffset": 5170584,
      "byteStride": 12,
      "name": "floatBufferViews",
      "target": 34962
    },
    {
      "buffer": 0,
      "byteLength": 4614352,
      "byteOffset": 12092112,
      "byteStride": 16,
      "name": "floatBufferViews",
      "target": 34962
    }
  ],
  "buffers": [
    {
      "byteLength": 16706464,
      "uri": "scene.bin"
    }
  ],
  "materials": [
    {
      "doubleSided": true,
      "name": "Scene_-_Root",
      "pbrMetallicRoughness": {
        "metallicFactor": 0.0,
        "roughnessFactor": 0.6
      }
    }
  ],
  "meshes": [
    {
      "name": "Object_0",
      "primitives": [
        {
          "attributes": {
            "COLOR_0": 2,
            "NORMAL": 1,
            "POSITION": 0
          },
          "indices": 3,
          "material": 0,
          "mode": 4
        }
      ]
    },
    {
      "name": "Object_1",
      "primitives": [
        {
          "attributes": {
            "COLOR_0": 6,
            "NORMAL": 5,
            "POSITION": 4
          },
          "indices": 7,
          "material": 0,
          "mode": 4
        }
      ]
    },
    {
      "name": "Object_2",
      "primitives": [
        {
          "attributes": {
            "COLOR_0": 10,
            "NORMAL": 9,
            "POSITION": 8
          },
          "indices": 11,
          "material": 0,
          "mode": 4
        }
      ]
    },
    {
      "name": "Object_3",
      "primitives": [
        {
          "attributes": {
            "COLOR_0": 14,
            "NORMAL": 13,
            "POSITION": 12
          },
          "indices": 15,
          "material": 0,
          "mode": 4
        }
      ]
    },
    {
      "name": "Object_4",
      "primitives": [
        {
          "attributes": {
            "COLOR_0": 18,
            "NORMAL": 17,
            "POSITION": 16
          },
          "indices": 19,
          "material": 0,
          "mode": 4
        }
      ]
    }
  ],
  "nodes": [
    {
      "children": [
        1
      ],
      "matrix": [
        1.0,
        0.0,
        0.0,
        0.0,
        0.0,
        2.220446049250313e-16,
        -1.0,
        0.0,
        0.0,
        1.0,
        2.220446049250313e-16,
        0.0,
        0.0,
        0.0,
        0.0,
        1.0
      ],
      "name": "Sketchfab_model"
    },
    {
      "children": [
        2
      ],
      "name": "root"
    },
    {
      "children": [
        3
      ],
      "matrix": [
        1.0,
        0.0,
        0.0,
        0.0,
        0.0,
        2.220446049250313e-16,
        1.0,
        0.0,
        0.0,
        -1.0,
        2.220446049250313e-16,
        0.0,
        0.0,
        0.0,
        0.0,
        1.0
      ],
      "name": "GLTF_SceneRootNode"
    },
    {
      "children": [
        4,
        5,
        6,
        7,
        8
      ],
      "matrix": [
        0.9999999403953552,
        0.0,
        0.0,
        0.0,
        0.0,
        -1.1920928244535389e-07,
        -0.9999998211860657,
        0.0,
        0.0,
        0.9999998211860657,
        -1.1920928244535389e-07,
        0.0,
        0.004936437122523785,
        -0.03404659032821655,
        -0.002833461621776223,
        1.0
      ],
      "name": "_0"
    },
    {
      "mesh": 0,
      "name": "Object_4"
    },
    {
      "mesh": 1,
      "name": "Object_5"
    },
    {
      "mesh": 2,
      "name": "Object_6"
    },
    {
      "mesh": 3,
      "name": "Object_7"
    },
    {
      "mesh": 4,
      "name": "Object_8"
    }
  ],
  "scene": 0,
  "scenes": [
    {
      "name": "Sketchfab_Scene",
      "nodes": [
        0
      ]
    }
  ]
}
